<svg width="1600" height="980" viewBox="0 0 1600 980" fill="none" xmlns="http://www.w3.org/2000/svg" role="img" aria-labelledby="title desc">
  <title id="title">خلفية مكتبة عربية دافئة</title>
  <desc id="desc">مشهد زخرفي لمكتب قراءة مع كتب وإضاءة ذهبية مناسبة لواجهة موقع روايات.</desc>
  <defs>
    <linearGradient id="bg" x1="160" y1="0" x2="1440" y2="980" gradientUnits="userSpaceOnUse">
      <stop stop-color="#1B263A"/>
      <stop offset="0.55" stop-color="#101827"/>
      <stop offset="1" stop-color="#070B12"/>
    </linearGradient>
    <radialGradient id="lamp" cx="0" cy="0" r="1" gradientUnits="userSpaceOnUse" gradientTransform="translate(1080 260) rotate(126) scale(620 520)">
      <stop stop-color="#F1D595" stop-opacity="0.78"/>
      <stop offset="0.45" stop-color="#C9A86A" stop-opacity="0.26"/>
      <stop offset="1" stop-color="#C9A86A" stop-opacity="0"/>
    </radialGradient>
    <linearGradient id="book1" x1="700" y1="424" x2="957" y2="815" gradientUnits="userSpaceOnUse">
      <stop stop-color="#D7B56F"/>
      <stop offset="1" stop-color="#7D5620"/>
    </linearGradient>
    <linearGradient id="book2" x1="910" y1="350" x2="1180" y2="850" gradientUnits="userSpaceOnUse">
      <stop stop-color="#6E7CFF"/>
      <stop offset="1" stop-color="#1C2548"/>
    </linearGradient>
    <filter id="blur" x="-20%" y="-20%" width="140%" height="140%">
      <feGaussianBlur stdDeviation="22"/>
    </filter>
  </defs>
  <rect width="1600" height="980" fill="url(#bg)"/>
  <rect width="1600" height="980" fill="url(#lamp)"/>
  <path d="M0 760C240 700 430 722 650 790C910 871 1168 850 1600 730V980H0V760Z" fill="#080C14" fill-opacity="0.78"/>
  <g opacity="0.38">
    <rect x="80" y="118" width="520" height="14" rx="7" fill="#E8D4A0"/>
    <rect x="80" y="218" width="460" height="12" rx="6" fill="#E8D4A0" fill-opacity="0.65"/>
    <rect x="80" y="318" width="560" height="12" rx="6" fill="#E8D4A0" fill-opacity="0.42"/>
    <rect x="88" y="145" width="34" height="72" rx="7" fill="#8F6A2B"/>
    <rect x="132" y="150" width="30" height="67" rx="7" fill="#26365A"/>
    <rect x="172" y="136" width="38" height="81" rx="7" fill="#B48C47"/>
    <rect x="224" y="154" width="26" height="63" rx="7" fill="#34513F"/>
    <rect x="270" y="141" width="42" height="76" rx="7" fill="#6E4661"/>
    <rect x="96" y="244" width="42" height="72" rx="7" fill="#2B3B60"/>
    <rect x="150" y="234" width="28" height="82" rx="7" fill="#B48C47"/>
    <rect x="188" y="253" width="36" height="63" rx="7" fill="#6A7D4A"/>
    <rect x="238" y="241" width="34" height="75" rx="7" fill="#7A4D2B"/>
  </g>
  <g opacity="0.95">
    <path d="M724 705C790 659 850 661 920 714V842C850 792 790 792 724 837V705Z" fill="#F3E7C7"/>
    <path d="M920 714C990 661 1050 659 1116 705V837C1050 792 990 792 920 842V714Z" fill="#E5D6B9"/>
    <path d="M724 705C790 659 850 661 920 714C990 661 1050 659 1116 705" stroke="#C9A86A" stroke-width="14" stroke-linejoin="round"/>
    <path d="M920 714V842" stroke="#A9874C" stroke-width="7"/>
  </g>
  <g transform="translate(1010 315) rotate(7)">
    <rect x="0" y="0" width="165" height="360" rx="20" fill="url(#book2)"/>
    <rect x="20" y="28" width="125" height="18" rx="9" fill="#F2D99A" opacity="0.86"/>
    <rect x="34" y="72" width="98" height="190" rx="49" stroke="#F2D99A" stroke-opacity="0.48" stroke-width="8"/>
  </g>
  <g transform="translate(802 390) rotate(-10)">
    <rect x="0" y="0" width="165" height="330" rx="20" fill="url(#book1)"/>
    <rect x="22" y="28" width="120" height="17" rx="8.5" fill="#101827" opacity="0.55"/>
    <path d="M48 105H118M48 137H118M48 169H118" stroke="#1B263A" stroke-opacity="0.48" stroke-width="10" stroke-linecap="round"/>
  </g>
  <circle cx="1212" cy="210" r="74" fill="#F3D994" opacity="0.22" filter="url(#blur)"/>
  <circle cx="1212" cy="210" r="34" fill="#F3D994" opacity="0.82"/>
  <path d="M1246 250L1330 420" stroke="#C9A86A" stroke-opacity="0.22" stroke-width="10" stroke-linecap="round"/>
  <g opacity="0.16">
    <path d="M1320 126C1380 150 1431 202 1460 272" stroke="#F3D994" stroke-width="3"/>
    <path d="M1340 86C1434 124 1510 202 1548 306" stroke="#F3D994" stroke-width="2"/>
  </g>
</svg>
